<?xml version="1.0" encoding="UTF-8" standalone="no"?>
<!--?xml version="1.0" encoding="utf-8"?-->

<!-- Generator: Adobe Illustrator 18.1.1, SVG Export Plug-In . SVG Version: 6.00 Build 0)  -->

<svg
   xmlns:dc="http://purl.org/dc/elements/1.1/"
   xmlns:cc="http://creativecommons.org/ns#"
   xmlns:rdf="http://www.w3.org/1999/02/22-rdf-syntax-ns#"
   xmlns:svg="http://www.w3.org/2000/svg"
   xmlns="http://www.w3.org/2000/svg"
   xmlns:sodipodi="http://sodipodi.sourceforge.net/DTD/sodipodi-0.dtd"
   xmlns:inkscape="http://www.inkscape.org/namespaces/inkscape"
   version="1.1"
   id="_x31_0"
   x="0px"
   y="0px"
   viewBox="0 0 454.8024 906.08409"
   style="opacity:1"
   xml:space="preserve"
   inkscape:version="0.91 r13725"
   sodipodi:docname="code-cookbook.svg"
   width="454.8024"
   height="906.08417"><metadata
     id="metadata15"><rdf:RDF><cc:Work
         rdf:about=""><dc:format>image/svg+xml</dc:format><dc:type
           rdf:resource="http://purl.org/dc/dcmitype/StillImage" /><dc:title></dc:title></cc:Work></rdf:RDF></metadata><defs
     id="defs13"><clipPath
       clipPathUnits="userSpaceOnUse"
       id="clipPath4281"><rect
         style="fill:#000000;fill-opacity:0.44755243"
         id="rect4283"
         width="454.8024"
         height="950.2373"
         x="201.34578"
         y="-80.768112" /></clipPath></defs><sodipodi:namedview
     pagecolor="#ffffff"
     bordercolor="#666666"
     borderopacity="1"
     objecttolerance="10"
     gridtolerance="10"
     guidetolerance="10"
     inkscape:pageopacity="0"
     inkscape:pageshadow="2"
     inkscape:window-width="1371"
     inkscape:window-height="671"
     id="namedview11"
     showgrid="false"
     inkscape:zoom="0.32593203"
     inkscape:cx="-416.5122"
     inkscape:cy="567.74058"
     inkscape:window-x="92"
     inkscape:window-y="130"
     inkscape:window-maximized="0"
     inkscape:current-layer="_x31_0"
     units="px"
     height="296mm"
     fit-margin-top="0"
     fit-margin-left="0"
     fit-margin-right="0"
     fit-margin-bottom="0" /><style
     type="text/css"
     id="style3">
	.st0{fill:#374149;}
</style><g
     id="g4307"><g
       style="fill:#22222f;fill-opacity:0.94117647"
       transform="matrix(1.0275125,-1.0275125,1.0275125,1.0275125,-355.43129,408.46397)"
       id="g5"><path
         inkscape:connector-curvature="0"
         id="path7"
         style="fill:#22222f;fill-opacity:0.94117647"
         d="m 337.37,389.814 c 4.019,-0.434 8.019,-0.997 12.011,-1.676 2.298,-0.387 4.59,-0.79 6.864,-1.258 2.488,-0.516 4.965,-1.055 7.437,-1.668 3.574,-0.883 7.118,-1.879 10.626,-2.962 2.242,-0.695 4.465,-1.43 6.687,-2.206 3.562,-1.242 7.098,-2.57 10.578,-4.02 2.168,-0.902 4.304,-1.875 6.445,-2.859 2.832,-1.301 5.633,-2.676 8.402,-4.117 2.778,-1.442 5.516,-2.962 8.238,-4.543 2.062,-1.203 4.098,-2.461 6.121,-3.746 3.348,-2.113 6.633,-4.336 9.871,-6.675 1.578,-1.141 3.133,-2.317 4.68,-3.508 3.511,-2.699 6.945,-5.527 10.308,-8.496 1.325,-1.172 2.637,-2.367 3.938,-3.582 1.696,-1.582 3.481,-3.015 5.137,-4.672 76.383,-76.382 76.383,-200.261 0,-276.64 -1.457,-1.461 -3.046,-2.699 -4.539,-4.102 -1.902,-1.793 -3.839,-3.542 -5.804,-5.246 -2.973,-2.586 -5.993,-5.066 -9.082,-7.442 -2.234,-1.719 -4.504,-3.383 -6.805,-5 -2.89,-2.027 -5.805,-3.977 -8.777,-5.832 -2.766,-1.726 -5.57,-3.387 -8.414,-4.969 -2.637,-1.465 -5.293,-2.867 -7.981,-4.203 -3.254,-1.617 -6.542,-3.152 -9.878,-4.582 -2.45,-1.051 -4.914,-2.035 -7.398,-2.981 -3.402,-1.297 -6.836,-2.504 -10.313,-3.606 -2.641,-0.84 -5.289,-1.606 -7.953,-2.328 -3.102,-0.836 -6.226,-1.602 -9.375,-2.285 -3.262,-0.715 -6.531,-1.336 -9.82,-1.883 -2.469,-0.406 -4.95,-0.758 -7.442,-1.07 -4.102,-0.523 -8.207,-0.906 -12.328,-1.168 -1.852,-0.117 -3.707,-0.203 -5.566,-0.266 -4.566,-0.16 -9.125,-0.16 -13.691,0 -1.86,0.062 -3.711,0.149 -5.559,0.266 -4.129,0.262 -8.238,0.649 -12.343,1.168 -2.489,0.313 -4.961,0.664 -7.426,1.07 -3.294,0.547 -6.57,1.168 -9.84,1.883 -3.141,0.687 -6.258,1.449 -9.356,2.285 -2.668,0.722 -5.324,1.488 -7.968,2.328 -3.469,1.102 -6.899,2.309 -10.298,3.606 -2.492,0.946 -4.965,1.934 -7.426,2.988 -3.324,1.426 -6.606,2.958 -9.847,4.57 -2.699,1.34 -5.363,2.746 -8.012,4.219 -2.836,1.578 -5.629,3.23 -8.386,4.953 -2.973,1.855 -5.891,3.805 -8.786,5.836 -2.297,1.617 -4.566,3.281 -6.805,5 -3.086,2.375 -6.105,4.855 -9.082,7.442 -1.965,1.703 -3.898,3.453 -5.805,5.246 -1.492,1.402 -3.078,2.641 -4.535,4.102 -20.324,20.321 -35.042,44.066 -44.55,69.332 -17.824,46.949 -17.106,99.363 3.074,146.144 7.078,16.508 16.527,32.242 28.363,46.676 0.007,0.008 0.015,0.016 0.023,0.027 l -22.324,22.328 -12.973,-13.062 -0.098,-0.102 -0.004,0.004 -0.114,-0.117 L 9.354,448.533 c -12.473,12.473 -12.473,32.648 0,45.117 l 8.894,8.894 c 12.469,12.469 32.641,12.469 45.114,0 l 120.117,-120.027 -13.203,-13.297 -0.015,-0.019 20.859,-20.859 1.426,-1.414 c 0.004,0.004 0.008,0.012 0.012,0.012 26.687,21.875 57.835,35.43 90.094,41.054 0.164,0.027 0.328,0.058 0.492,0.086 5.218,0.898 10.453,1.578 15.714,2.046 0.458,0.043 0.91,0.082 1.363,0.122 5.118,0.422 10.234,0.644 15.363,0.664 0.27,0.003 0.539,0.035 0.813,0.035 0,0 0.004,0 0.012,0 0.542,0 1.082,-0.035 1.629,-0.039 5.066,-0.043 10.113,-0.282 15.164,-0.715 1.39,-0.117 2.78,-0.235 4.168,-0.379 z m 78.464,-94.867 c -27.418,27.418 -63.454,41.082 -99.488,41.082 -35.946,0 -71.981,-13.664 -99.398,-41.082 -54.832,-54.832 -54.832,-144.054 0,-198.882 27.418,-27.328 63.453,-41.082 99.398,-41.082 36.034,0 72.07,13.754 99.488,41.082 54.742,54.828 54.742,144.05 0,198.882 z M 56.21,473.477 c -4.953,4.95 -12.93,4.95 -17.789,0 -4.953,-4.859 -4.953,-12.835 0,-17.789 4.859,-4.953 12.836,-4.953 17.789,0 4.949,4.954 4.949,12.93 0,17.789 z"
         class="st0" /><path
         inkscape:connector-curvature="0"
         id="path9"
         style="fill:#22222f;fill-opacity:0.94117647"
         d="m 316.346,73.322 c -32.645,0 -63.359,12.746 -86.375,35.762 -23.11,23.012 -35.762,53.73 -35.762,86.465 0,32.645 12.652,63.363 35.762,86.469 23.016,23.015 53.73,35.671 86.375,35.671 32.734,0 63.453,-12.656 86.468,-35.671 23.106,-23.106 35.762,-53.824 35.762,-86.469 0,-32.734 -12.656,-63.453 -35.762,-86.465 C 379.799,86.069 349.08,73.322 316.346,73.322 Z M 258.6,253.259 c -0.046,0.047 -0.094,0.086 -0.137,0.13 -0.492,0.523 -1.011,0.914 -1.539,1.285 -0.39,0.254 -0.789,0.492 -1.199,0.66 -0.144,0.066 -0.297,0.11 -0.445,0.164 -0.59,0.192 -1.192,0.321 -1.821,0.321 -0.058,0 -0.113,0 -0.171,-0.004 11.129,0 16.198,-31.262 16.198,-60.309 l 0.165,0 c 0,24.847 -3.684,49.687 -11.051,57.753 z"
         class="st0" /></g><g
       transform="matrix(9.3314445,0,0,9.3314445,-3102.3507,6627.1184)"
       id="g4213"><path
         style="fill:none"
         inkscape:connector-curvature="0"
         d="m 339.09448,-691.74788 24,0 0,24 -24,0 0,-24 z"
         id="path4195" /><path
         style="fill:#ffffff"
         inkscape:connector-curvature="0"
         d="m 348.49448,-675.14788 -4.6,-4.6 4.6,-4.6 -1.4,-1.4 -6,6 6,6 1.4,-1.4 z m 5.2,0 4.6,-4.6 -4.6,-4.6 1.4,-1.4 6,6 -6,6 -1.4,-1.4 z"
         id="path4197" /></g></g></svg>