<?xml version="1.0" encoding="UTF-8" standalone="no"?>
<svg
   xmlns:dc="http://purl.org/dc/elements/1.1/"
   xmlns:cc="http://creativecommons.org/ns#"
   xmlns:rdf="http://www.w3.org/1999/02/22-rdf-syntax-ns#"
   xmlns:svg="http://www.w3.org/2000/svg"
   xmlns="http://www.w3.org/2000/svg"
   xmlns:sodipodi="http://sodipodi.sourceforge.net/DTD/sodipodi-0.dtd"
   xmlns:inkscape="http://www.inkscape.org/namespaces/inkscape"
   fill="#000000"
   height="24"
   viewBox="0 0 24 24"
   width="24"
   id="svg2"
   version="1.1"
   inkscape:version="0.91 r13725"
   sodipodi:docname="search.svg">
  <metadata
     id="metadata12">
    <rdf:RDF>
      <cc:Work
         rdf:about="">
        <dc:format>image/svg+xml</dc:format>
        <dc:type
           rdf:resource="http://purl.org/dc/dcmitype/StillImage" />
        <dc:title></dc:title>
      </cc:Work>
    </rdf:RDF>
  </metadata>
  <defs
     id="defs10" />
  <sodipodi:namedview
     pagecolor="#ffffff"
     bordercolor="#666666"
     borderopacity="1"
     objecttolerance="10"
     gridtolerance="10"
     guidetolerance="10"
     inkscape:pageopacity="0"
     inkscape:pageshadow="2"
     inkscape:window-width="1108"
     inkscape:window-height="676"
     id="namedview8"
     showgrid="false"
     inkscape:zoom="0.61458333"
     inkscape:cx="36.40678"
     inkscape:cy="134.0339"
     inkscape:window-x="0"
     inkscape:window-y="23"
     inkscape:window-maximized="0"
     inkscape:current-layer="svg2" />
  <g
     id="g4142">
    <rect
       y="-269.11914"
       x="-130.16949"
       height="298"
       width="400"
       id="rect4140"
       style="fill:#ffffff;fill-opacity:0.44755243" />
    <path
       inkscape:connector-curvature="0"
       id="path4"
       d="m 123.50403,-87.886435 -11.29216,0 -4.00228,-3.859349 c 14.008,-16.295026 22.44139,-37.449966 22.44139,-60.463126 0,-51.31503 -41.595205,-92.91023 -92.91024,-92.91023 -51.315038,0 -92.910235,41.5952 -92.910235,92.91023 0,51.31504 41.595197,92.910238 92.910235,92.910238 23.013155,0 44.168095,-8.433391 60.463125,-22.441394 l 3.859355,4.002287 0,11.292166 71.4694,71.3264724 21.29789,-21.2978844 -71.32648,-71.46941 z m -85.76329,0 c -35.5917676,0 -64.322471,-28.730705 -64.322471,-64.322475 0,-35.59177 28.7307034,-64.32247 64.322471,-64.32247 35.591765,0 64.32248,28.7307 64.32248,64.32247 0,35.59177 -28.730715,64.322475 -64.32248,64.322475 z" />
  </g>
  <path
     d="M0 0h24v24H0z"
     fill="none"
     id="path6" />
</svg>
